# xmcd CD database file
#
# Track frame offsets:
#	150
#	38036
#	69885
#	110822
#	139613
#	164054
#	192265
#	214007
#	245018
#
# Disc length: 3520 seconds
#
# Revision: 0
# Processed by: cddbd v1.4PL0 Copyright (c) Steve Scherf et al.
# Submitted via: NeoAudio 9.9.9
#
DISCID=830dbe09
DTITLE=herbie's explo 3000 - time zones
DYEAR=2002
DGENRE=Jazz
TTITLE0=dezembro ligeiro
TTITLE1=holzalangä
TTITLE2=check-mate!
TTITLE3=intimacy
TTITLE4=pepe (dä mit em goldige schnauz!)
TTITLE5=halfway to dawn
TTITLE6=explo 3000
TTITLE7=pure optimism
TTITLE8=yvette'e sketchbook
EXTD=YEAR: 2002
EXTT0=
EXTT1=
EXTT2=
EXTT3=
EXTT4=
EXTT5=
EXTT6=
EXTT7=
EXTT8=
PLAYORDER=
